<?xml version="1.0" encoding="utf-8"?>
<!-- Generator: Adobe Illustrator 16.0.0, SVG Export Plug-In . SVG Version: 6.00 Build 0)  -->
<!DOCTYPE svg PUBLIC "-//W3C//DTD SVG 1.1//EN" "http://www.w3.org/Graphics/SVG/1.1/DTD/svg11.dtd">
<svg version="1.1" id="Layer_1" xmlns="http://www.w3.org/2000/svg" xmlns:xlink="http://www.w3.org/1999/xlink" x="0px" y="0px"
	 width="1024px" height="1024px" viewBox="0 0 1024 1024" enable-background="new 0 0 1024 1024" xml:space="preserve">
<path fill="#F07C38" d="M511.995,102.4c-225.867,0-409.596,183.781-409.596,409.604c0,225.866,183.729,409.596,409.596,409.596
	c225.866,0,409.597-183.729,409.597-409.596C921.592,286.18,737.861,102.4,511.995,102.4z M861.328,512.004
	c0,79.905-27.109,153.598-72.354,212.537c-12.8-10.051-26.401-37.034-13.602-65.031c12.895-28.168,16.264-93.338,13.329-118.698
	c-2.841-25.335-16-86.45-51.813-87.039c-35.738-0.529-60.262-12.348-81.519-54.75c-44.082-88.226,82.755-105.155,38.664-154.042
	c-12.348-13.696-76.082,56.481-85.418-37.069c-0.622-6.63,5.777-16.631,14.312-27.034c138.4,46.498,238.4,177.304,238.4,331.124
	V512.004z M463.995,166.135c-8.355,16.264-30.396,22.886-43.827,35.114c-29.149,26.401-41.685,22.75-57.419,48.085
	c-15.821,25.335-66.85,61.866-66.85,80.178c0,18.304,25.779,39.953,38.664,35.738c12.894-4.233,46.847-4.002,66.849,3.021
	c20.002,7.065,167.014,14.131,120.174,138.409c-14.839,39.5-79.906,32.837-97.245,98.304c-2.585,9.564-11.554,50.584-12.186,63.998
	c-1.066,20.719,14.669,98.9-5.333,98.9c-20.087,0-74.137-69.912-74.137-82.584s-14.045-57.113-14.045-95.146
	c0-38.049-64.707-37.436-64.707-88.003c0-45.652,35.105-68.316,27.204-90.179c-7.731-21.742-69.426-22.544-95.111-25.156
	C230.927,270.267,336.62,183.732,463.995,166.135L463.995,166.135z M402.129,843.504c20.974-11.068,23.108-25.369,42.137-26.164
	c21.776-0.98,39.466-8.498,63.999-13.865c21.777-4.771,60.706-26.846,95.027-29.697c28.884-2.346,85.946,1.52,101.332,29.432
	c-55.288,36.701-121.515,58.129-192.621,58.129C473.595,861.338,436.705,855.023,402.129,843.504L402.129,843.504z"/>
</svg>
